<svg data-v-0dd9719b="" version="1.0" xmlns="http://www.w3.org/2000/svg" xmlns:xlink="http://www.w3.org/1999/xlink" width="100%" height="100%" viewBox="0 0 340.000000 250.000000" preserveAspectRatio="xMidYMid meet" color-interpolation-filters="sRGB" style="margin: auto;"> <rect data-v-0dd9719b="" x="0" y="0" width="100%" height="100%" fill="#fff" fill-opacity="1" class="background"></rect> <rect data-v-0dd9719b="" x="0" y="0" width="100%" height="100%" fill="url(#watermark)" fill-opacity="1" class="watermarklayer"></rect> <g data-v-0dd9719b="" fill="#626c80" class="icon-text-wrapper icon-svg-group iconsvg" transform="translate(49.44499969482422,97.85875129699707)"><g class="iconsvg-imagesvg" transform="translate(0,5.891780853271484)"><g><rect fill="#626c80" fill-opacity="0" stroke-width="2" x="0" y="0" width="60" height="42.49893752656184" class="image-rect"></rect> <svg x="0" y="0" width="60" height="42.49893752656184" filtersec="colorsb6876320119" class="image-svg-svg primary" style="overflow: visible;"><svg xmlns="http://www.w3.org/2000/svg" viewBox="0 0 23.450000762939453 16.610000610351562"><g><path d="M4.45 0h5L7.68 6.45h14L18.9 16.61h-5L15.72 10h-9L5 16.61H0L4.45 0zm13 3.71h5l1-3.71h-5z" fill="#626c80" fill-rule="evenodd"></path></g></svg></svg> <!----></g></g> <g transform="translate(67,0)"><g data-gra="path-name" fill-rule="" class="tp-name iconsvg-namesvg" transform="translate(0,0)"><g transform="scale(1)"><g><path d="M7.25-30.06L7.79-34.78 15.52-30.38 14.94-25.61 7.25-30.06ZM17.19-33.16L42.43-33.16 41.94-28.98 39.64-28.98 36.59-0.45Q36.36 1.53 35.55 2.38 34.74 3.24 32.94 3.24L32.94 3.24Q32.17 3.24 31.23 3.1L31.23 3.1Q29.47 2.88 27.68 2.43L27.68 2.43Q25.29 1.84 24.07 1.4L24.07 1.4 24.48-2.75Q27.63-1.75 31.14-1.08L31.14-1.08Q31.32-1.03 31.63-1.03L31.63-1.03Q31.95-1.03 32.09-1.21 32.22-1.4 32.31-1.8L32.31-1.8 35.1-28.98 16.7-28.98 17.19-33.16ZM5-20.84L5.63-25.56 13.23-21.02 12.69-16.29 5-20.84ZM30.6-20.61L29.07-7.33 15.25-7.33 16.92-21.06Q17.14-23.13 18.04-24.03 18.95-24.93 20.93-24.93L20.93-24.93 27-24.93Q30.64-24.93 30.64-21.46L30.64-21.46Q30.64-20.88 30.6-20.61L30.6-20.61ZM20.88-21.24L19.66-11.03 25.56-11.03 26.64-21.24 20.88-21.24ZM8.73-13L13.23-13 11.7-8.78Q9.9-3.73 8.59-0.58L8.59-0.58Q7.51 1.98 7.06 2.88L7.06 2.88 2.38 2.88Q6.34-6.25 8.73-13L8.73-13ZM87.3-31.68L86.81-27.72 70.69-27.72 70.33-24.61 81.72-24.61Q83.43-24.61 84.35-23.76 85.28-22.9 85.28-21.29L85.28-21.29Q85.28-20.79 85.23-20.52L85.23-20.52 82.75-1.44Q82.39 1.13 81.47 2.16 80.55 3.19 78.48 3.19L78.48 3.19Q75.69 3.19 72.45 2.52L72.45 2.52 72.77-1.71Q73.66-1.44 75.38-1.17L75.38-1.17Q76.59-0.99 77.44-0.99L77.44-0.99Q77.98-1.03 78.19-1.28 78.39-1.53 78.48-2.29L78.48-2.29 80.69-20.65 56.34-20.65 53.5 2.97 49.09 2.97 51.93-20.61Q52.16-22.72 53.1-23.67 54.05-24.61 56.02-24.61L56.02-24.61 65.75-24.61 66.15-27.72 51.12-27.72 51.57-31.68 66.73-31.68 67.28-35.55 71.64-35.55 71.14-31.68 87.3-31.68ZM76.86-5.13L68.67-5.13 67.91 1.84 63.67 1.84 64.44-5.13 56.25-5.13 56.66-8.73 64.8-8.73 65.16-11.92 57.6-11.92 58.05-15.39 61.78-15.39 60.8-19.53 64.58-19.53 65.56-15.39 70.2-15.39 71.69-19.53 75.73-19.53 74.07-15.39 77.53-15.39 77.13-11.92 69.39-11.92 69.03-8.73 77.27-8.73 76.86-5.13ZM106.34-29.74L104.58-13.86 100.13-13.86 101.3-24.03 98.91-21.6 93.28-21.6Q97.02-25.33 100.26-28.98L100.26-28.98Q103.72-32.89 105.75-35.59L105.75-35.59 111.02-35.59Q110.79-35.28 110.47-34.9 110.16-34.52 109.8-34.02L109.8-34.02 106.34-29.74ZM130.19-32.45L129.74-27.99Q124.25-25.56 118.39-23.76L118.39-23.76 117.94-19.84Q117.9-19.71 117.9-19.44L117.9-19.44Q117.9-18.99 118.13-18.83 118.35-18.68 118.94-18.68L118.94-18.68 123.16-18.68Q124.83-18.68 126.92-19.19 129.01-19.71 130.77-20.61L130.77-20.61 130.19-15.97Q128.75-15.3 126.67-14.92 124.6-14.54 122.63-14.54L122.63-14.54 116.95-14.54Q113.31-14.54 113.31-17.68L113.31-17.68Q113.31-18.22 113.36-18.54L113.36-18.54 113.81-22.41Q110.07-21.42 107.59-20.84L107.59-20.84 108-25.06Q111.24-25.83 114.3-26.82L114.3-26.82 115.33-35.37 119.83-35.37 118.98-28.26Q124.52-30.11 130.19-32.45L130.19-32.45ZM114.25-10.21L130.81-10.21 130.32-6.12 113.81-6.12 112.77 3.69 108.18 3.69 109.22-6.12 93.6-6.12 94.09-10.21 109.66-10.21 110.11-14.17 114.7-14.17 114.25-10.21ZM168.3-31.72L166.68-35.05 170.69-35.05 172.31-31.72 176.49-31.72 176.09-28.04 164.43-28.04 164.61-27.13 164.75-26.32Q165.24-23.71 166.05-21.64L166.05-21.64Q168.3-23.67 170.59-26.41L170.59-26.41 175.14-26.41Q173.52-24.3 171.97-22.66 170.41-21.02 168.34-19.21L168.34-19.21 167.53-18.5Q168.16-17.5 168.57-16.92L168.57-16.92Q168.84-16.47 169.09-16.29 169.34-16.11 169.65-16.11L169.65-16.11Q169.97-16.11 170.28-16.25L170.28-16.25Q171.41-16.61 173-17.41 174.6-18.22 176.04-19.3L176.04-19.3 175.86-14.63Q174.96-13.99 173.56-13.41L173.56-13.41Q172.03-12.69 171.22-12.46L171.22-12.46Q170.41-12.2 169.56-12.2L169.56-12.2Q168.3-12.2 167.2-12.78 166.09-13.37 165.38-14.4L165.38-14.4 164.34-15.93Q162.41-14.45 159.93-13L159.93-13 156.33-14.85Q159.88-16.92 162.76-19.04L162.76-19.04Q161.78-21.46 160.78-25.61L160.78-25.61Q160.6-26.28 160.56-26.77L160.56-26.77 160.29-28.04 147.42-28.04 147.06-25.33 154.4-25.33Q156.1-25.33 156.78-24.7 157.45-24.07 157.45-22.63L157.45-22.63Q157.45-22.27 157.37-21.46L157.37-21.46Q157-18.59 156.51-16.52L156.51-16.52Q156.15-14.8 155.45-14.02 154.75-13.23 153.36-13.23L153.36-13.23Q151.97-13.23 150.12-13.63L150.12-13.63Q148.81-13.9 147.91-14.22L147.91-14.22 148.37-17.59 149.18-17.37 151.06-16.88Q151.56-16.74 151.97-16.74L151.97-16.74Q152.28-16.74 152.55-16.88L152.55-16.88Q152.87-17.1 152.91-17.68L152.91-17.68 153.04-18.5 153.22-19.57 153.41-20.75 153.54-21.78 146.52-21.78Q145.31-15.84 142.25-11.61L142.25-11.61 138.28-12.82Q142.25-18.72 143.06-25.15L143.06-25.15 143.46-28.21Q143.69-30.15 144.47-30.94 145.26-31.72 147.1-31.72L147.1-31.72 159.75-31.72Q159.57-33.07 159.53-33.75L159.53-33.75 159.34-35.64 163.44-35.64Q163.75-32.71 163.89-31.72L163.89-31.72 168.3-31.72ZM172.13-1.3L176.26-1.3 175.86 2.48 137.52 2.48 137.93-1.3 141.21-1.3 141.97-7.69Q142.25-9.4 143.24-10.39 144.22-11.38 145.94-11.38L145.94-11.38 169.16-11.38Q171.09-11.38 172.06-10.37 173.03-9.36 172.84-7.47L172.84-7.47 172.13-1.3ZM150.3-1.3L150.97-7.79 146.12-7.79 145.35-1.3 150.3-1.3ZM159.16-1.3L159.84-7.79 154.84-7.79 154.17-1.3 159.16-1.3ZM162.99-1.3L167.94-1.3 168.62-7.79 163.66-7.79 162.99-1.3Z" transform="translate(-2.380000114440918, 35.63999938964844)"></path></g> <!----> <!----> <!----> <!----> <!----> <!----> <!----></g></g> <g data-gra="path-slogan" fill-rule="" class="tp-slogan iconsvg-slogansvg" fill="#626c80" transform="translate(5,45.32999801635742)"><rect x="0" height="1" y="3.9750003814697266" width="23.509998321533203"></rect> <rect height="1" y="3.9750003814697266" width="23.509998321533203" x="140.60000228881836"></rect> <g transform="translate(26.509998321533203,0)"><g transform="scale(1)"><path d="M2.06-5.06L6.56-5.06L6.56-8.58L7.73-8.58L7.73 0L6.56 0L6.56-3.98L2.06-3.98L2.06 0L0.89 0L0.89-8.58L2.06-8.58L2.06-5.06ZM10.83-1.03L15.98-1.03L15.98 0L9.66 0L9.66-8.58L15.89-8.58L15.89-7.59L10.83-7.59L10.83-4.92L15.52-4.92L15.52-3.89L10.83-3.89L10.83-1.03ZM18.89-8.58L23.20-1.64L23.20-8.58L24.33-8.58L24.33 0L23.02 0L18.66-6.94L18.61-6.94L18.61 0L17.48 0L17.48-8.58L18.89-8.58ZM31.78 0L30.94-2.48L27.47-2.48L26.58 0L25.41 0L28.64-8.58L29.95-8.58L33.05 0L31.78 0ZM29.20-7.31L27.84-3.52L30.52-3.52L29.25-7.31L29.20-7.31ZM35.48-8.58L39.80-1.64L39.80-8.58L40.92-8.58L40.92 0L39.61 0L35.25-6.94L35.20-6.94L35.20 0L34.08 0L34.08-8.58L35.48-8.58ZM47.20-5.06L51.70-5.06L51.70-8.58L52.88-8.58L52.88 0L51.70 0L51.70-3.98L47.20-3.98L47.20 0L46.03 0L46.03-8.58L47.20-8.58L47.20-5.06ZM60.33-3.19L60.33-8.58L61.50-8.58L61.50-3.05Q61.36 0.05 57.98 0.14L57.98 0.14Q54.84 0.05 54.70-2.86L54.70-2.86L54.70-8.58L55.88-8.58L55.88-3.19Q55.92-0.84 58.03-0.80L58.03-0.80Q60.33-0.84 60.33-3.19L60.33-3.19ZM68.95 0L68.11-2.48L64.64-2.48L63.75 0L62.58 0L65.81-8.58L67.13-8.58L70.22 0L68.95 0ZM66.38-7.31L65.02-3.52L67.69-3.52L66.42-7.31L66.38-7.31ZM77.53-6.09L77.53-6.09L76.45-6.09Q76.36-7.73 74.30-7.83L74.30-7.83Q72.38-7.78 72.38-6.33L72.38-6.33Q72.38-5.39 73.41-5.25L73.41-5.25L75.84-4.69Q77.77-4.22 77.77-2.34L77.77-2.34Q77.72 0.05 74.39 0.14L74.39 0.14Q72.56 0.14 71.81-0.61L71.81-0.61Q70.88-1.31 70.92-2.77L70.92-2.77L72.05-2.77Q72.09-0.80 74.39-0.75L74.39-0.75Q76.64-0.80 76.69-2.20L76.69-2.20Q76.88-3.38 74.81-3.75L74.81-3.75L73.03-4.13Q71.20-4.64 71.20-6.19L71.20-6.19Q71.34-8.72 74.20-8.81L74.20-8.81Q77.44-8.81 77.53-6.09ZM80.39-5.06L84.89-5.06L84.89-8.58L86.06-8.58L86.06 0L84.89 0L84.89-3.98L80.39-3.98L80.39 0L79.22 0L79.22-8.58L80.39-8.58L80.39-5.06ZM89.16-1.03L94.31-1.03L94.31 0L87.98 0L87.98-8.58L94.22-8.58L94.22-7.59L89.16-7.59L89.16-4.92L93.84-4.92L93.84-3.89L89.16-3.89L89.16-1.03ZM97.22-8.58L101.53-1.64L101.53-8.58L102.66-8.58L102.66 0L101.34 0L96.98-6.94L96.94-6.94L96.94 0L95.81 0L95.81-8.58L97.22-8.58ZM110.86-3.61L108.23-3.61L108.23-4.59L111.98-4.59L111.98 0L111.23 0L110.95-1.08Q109.97 0.09 108.14 0.14L108.14 0.14Q106.41 0.14 105.47-0.75L105.47-0.75Q104.06-2.06 104.11-4.36L104.11-4.36Q104.44-8.63 108.19-8.81L108.19-8.81Q111.38-8.63 111.84-6L111.84-6L110.72-6Q110.25-7.78 108.14-7.83L108.14-7.83Q105.47-7.64 105.33-4.31L105.33-4.31Q105.33-0.75 108.19-0.75L108.19-0.75Q109.22-0.75 109.97-1.31L109.97-1.31Q110.91-2.06 110.86-3.61L110.86-3.61Z" transform="translate(-0.890625, 8.8125)"></path></g></g></g></g></g><defs v-gra="od"></defs></svg>